<?xml version="1.0" encoding="UTF-8" standalone="no"?>
<!-- Created with Inkscape (http://www.inkscape.org/) -->

<svg
   version="1.1"
   id="svg1"
   width="600"
   height="600"
   viewBox="0 0 600 600"
   sodipodi:docname="Avatar2D.svg"
   inkscape:version="1.3.2 (091e20ef0f, 2023-11-25, custom)"
   xmlns:inkscape="http://www.inkscape.org/namespaces/inkscape"
   xmlns:sodipodi="http://sodipodi.sourceforge.net/DTD/sodipodi-0.dtd"
   xmlns="http://www.w3.org/2000/svg"
   xmlns:svg="http://www.w3.org/2000/svg">
  <defs
     id="defs1" />
  <sodipodi:namedview
     id="namedview1"
     pagecolor="#3a3a3a"
     bordercolor="#2a2a2a"
     borderopacity="1"
     inkscape:showpageshadow="0"
     inkscape:pageopacity="0"
     inkscape:pagecheckerboard="1"
     inkscape:deskcolor="#1a1a1a"
     inkscape:zoom="1.4377838"
     inkscape:cx="378.70784"
     inkscape:cy="315.76375"
     inkscape:window-width="1402"
     inkscape:window-height="867"
     inkscape:window-x="0"
     inkscape:window-y="0"
     inkscape:window-maximized="1"
     inkscape:current-layer="layer5" />
  <g
     inkscape:groupmode="layer"
     id="layer1"
     inkscape:label="Clothes"
     style="display:inline;opacity:1">
    <g
       id="g83">
      <path
         style="fill:#0e0e0e;fill-opacity:1;stroke:#0e0e0e;stroke-width:4;stroke-linecap:round;stroke-linejoin:round;stroke-dasharray:none;stroke-opacity:1"
         d="m 196.49762,596.30341 c 9.59865,-35.06237 19.19729,-70.12474 28.79594,-105.18711 -12.59925,-19.01933 14.55286,-33.74261 26.68741,-44.29502 12.81318,-24.06644 39.15093,-23.54243 62.34199,-28.30235 23.57324,-3.47616 34.52331,22.15967 52.35303,33.60168 17.32802,13.36289 37.85967,27.02712 41.11811,50.77294 1.52091,32.29622 13.47313,62.59062 21.98015,93.4299 -77.75886,-0.007 -155.51783,-0.0132 -233.27663,-0.02 z"
         id="path28" />
      <path
         style="fill:#ededed;fill-opacity:1;stroke:none;stroke-width:4;stroke-linecap:round;stroke-linejoin:round;stroke-dasharray:none"
         d="m 276.10038,564.66451 c -3.30233,-4.10425 -1.32358,-10.62391 -6.34685,-14.0283 -2.06926,-11.87847 0.31699,-33.0468 0.24108,-57.28461 -5.46845,-1.0762 -20.26067,-0.76027 -43.21529,1.18148 -0.5235,-6.42011 9.80106,-2.26929 13.92763,-4.17845 10.47052,-0.81639 21.07277,-2.75455 31.46577,-0.2247 3.15531,1.09083 15.37877,0.68445 9.9835,5.31216 -7.04955,-2.51637 -2.60787,9.15049 -4.10535,13.5909 -0.11479,12.29689 -1.37272,24.85405 1.90086,36.86126 3.49496,5.44082 -1.62916,11.25448 -0.10712,16.95771 -0.6685,1.34347 -2.48151,1.43363 -3.74423,1.81255 z"
         id="path29"
         sodipodi:nodetypes="ccccccccccc" />
      <path
         style="fill:#ededed;fill-opacity:1;stroke:none;stroke-width:4;stroke-linecap:round;stroke-linejoin:round;stroke-dasharray:none;stroke-opacity:1"
         d="m 316.59347,563.62916 c -9.01088,-6.96363 -0.94915,-65.02611 -9.30237,-72.57107 5.92138,-4.0535 15.12844,5.2107 22.11383,0.0897 15.30324,-10.19742 33.17962,-15.58814 50.7009,-20.58499 4.92292,-2.5482 7.21323,3.57631 1.11934,2.74876 -18.50666,8.47411 -43.0816,15.46 -60.56625,24.70168 0.64768,13.96734 1.70259,27.94203 2.94357,41.84416 -2.76668,7.4469 3.72704,22.63816 -7.00902,23.7718 z"
         id="path30"
         sodipodi:nodetypes="sccccccss" />
      <path
         style="fill:none;fill-opacity:1;stroke:#ffffff;stroke-width:2;stroke-linecap:round;stroke-linejoin:round;stroke-dasharray:none;stroke-opacity:1"
         d="m 277.646,483.69555 -9.03728,-5.32606 -9.31236,-1.6223 -13.35164,-5.27579 -2.65777,-6.07794 1.48952,-6.41246"
         id="path31" />
      <path
         style="fill:none;fill-opacity:1;stroke:#ffffff;stroke-width:2;stroke-linecap:round;stroke-linejoin:round;stroke-dasharray:none;stroke-opacity:1"
         d="m 282.43427,480.31161 -6.92175,-3.2971 -4.95501,-3.36578 -4.61498,-6.79592 -4.39694,-8.07105 -1.10607,-8.88992 2.07095,-10.07284 2.67418,-4.24084"
         id="path32" />
      <path
         style="fill:none;fill-opacity:1;stroke:#ffffff;stroke-width:2;stroke-linecap:round;stroke-linejoin:round;stroke-dasharray:none;stroke-opacity:1"
         d="m 311.88387,476.11591 7.72861,-4.03577 7.26274,-6.70562 8.03023,-8.22954 3.9301,-6.96353 0.82608,-12.16877"
         id="path33" />
      <path
         style="fill:none;fill-opacity:1;stroke:#ffffff;stroke-width:2;stroke-linecap:round;stroke-linejoin:round;stroke-dasharray:none;stroke-opacity:1"
         d="m 353.25682,441.27472 1.3952,7.38041 2.17662,7.61815 -0.77757,3.0949"
         id="path35" />
      <path
         style="fill:none;fill-opacity:1;stroke:#ffffff;stroke-width:2;stroke-linecap:round;stroke-linejoin:round;stroke-dasharray:none;stroke-opacity:1"
         d="m 317.86475,474.14437 6.48038,0.43994 6.6792,-0.22525 8.21706,-1.80296 12.64328,-4.02808"
         id="path34" />
    </g>
  </g>
  <g
     inkscape:groupmode="layer"
     id="layer2"
     inkscape:label="Neck"
     style="display:inline">
    <g
       id="g84">
      <path
         style="fill:#6d3828;fill-opacity:1;stroke:#62392a;stroke-width:4;stroke-linecap:round;stroke-linejoin:round;stroke-dasharray:none;stroke-opacity:1"
         d="m 321.49786,443.57365 c -3.41467,1.64813 -8.20194,4.39424 -11.58487,6.11102 -7.45836,3.85762 -14.9391,7.67381 -22.36031,11.60209 -0.611,0.33396 -0.15918,1.33413 0.49362,1.10016 4.74937,-1.98339 9.42713,-4.13863 14.14139,-6.20513 6.2461,-2.79347 12.52352,-5.52046 18.72185,-8.41852 0.68125,-0.36424 1.82157,0.0251 1.76755,-0.53997 -0.16841,-0.56506 -0.33582,-3.73056 -1.17923,-3.64965 z"
         id="path41"
         sodipodi:nodetypes="cccccccc" />
      <path
         style="fill:#c2a07b;fill-opacity:1;stroke:none;stroke-width:4;stroke-linecap:round;stroke-linejoin:round;stroke-dasharray:none;stroke-opacity:1"
         d="m 298.60518,481.66839 -15.68151,-17.5349 42.10345,-18.70053 -9.60313,16.71122 z"
         id="path36" />
      <path
         style="fill:#99593c;fill-opacity:1;stroke:none;stroke-width:2;stroke-linecap:round;stroke-linejoin:round;stroke-dasharray:none;stroke-opacity:1"
         d="m 274.84854,411.98049 3.73295,28.07553 11.38616,1.36951 6.11755,-2.97243 9.05514,-6.74069 5.87207,-8.19015 3.95388,-10.92894 -0.88347,-2.68979 -10.13168,2.22656 -10.29607,0.17908 -11.73342,2.21423 z"
         id="path38"
         sodipodi:nodetypes="cccccccccccc" />
      <circle
         id="path42"
         style="fill:#693c2b;stroke:#800080;stroke-width:2;stroke-dasharray:none"
         cx="283.40573"
         cy="417.15536"
         r="0.072214894" />
      <circle
         id="path63"
         style="fill:#161616;stroke:#090909;stroke-width:2;stroke-dasharray:none"
         cx="279.88065"
         cy="419.04425"
         r="0.018053723" />
      <circle
         id="path64"
         style="fill:#161616;stroke:#090909;stroke-width:2;stroke-dasharray:none"
         cx="286.53012"
         cy="442.75156"
         r="0.018053723" />
      <path
         style="fill:#6c3a27;fill-opacity:1;stroke:#653625;stroke-width:2;stroke-linecap:round;stroke-linejoin:round;stroke-dasharray:none;stroke-opacity:1"
         d="m 286.78517,442.68021 -6.6349,-22.99954"
         id="path65" />
      <path
         style="fill:#6c3a27;fill-opacity:1;stroke:#653625;stroke-width:2;stroke-linecap:round;stroke-linejoin:round;stroke-dasharray:none;stroke-opacity:1"
         d="m 290.49979,442.62281 -6.46544,-24.27136"
         id="path66" />
      <path
         style="fill:#6c3a27;fill-opacity:1;stroke:#653625;stroke-width:2;stroke-linecap:round;stroke-linejoin:round;stroke-dasharray:none;stroke-opacity:1"
         d="m 288.53414,417.87634 6.32076,24.01123"
         id="path67" />
      <path
         style="fill:#6c3a27;fill-opacity:1;stroke:#653625;stroke-width:2;stroke-linecap:round;stroke-linejoin:round;stroke-dasharray:none;stroke-opacity:1"
         d="m 292.36253,417.60567 5.93769,21.52021"
         id="path68" />
      <path
         style="fill:#6c3a27;fill-opacity:1;stroke:#653625;stroke-width:2;stroke-linecap:round;stroke-linejoin:round;stroke-dasharray:none;stroke-opacity:1"
         d="m 295.81158,416.38479 6.25725,21.81668"
         id="path69" />
      <path
         style="fill:#6c3a27;fill-opacity:1;stroke:#653625;stroke-width:2;stroke-linecap:round;stroke-linejoin:round;stroke-dasharray:none;stroke-opacity:1"
         d="m 298.11411,416.26762 7.10492,19.52196"
         id="path70" />
      <path
         style="fill:#6c3a27;fill-opacity:1;stroke:#653625;stroke-width:2;stroke-linecap:round;stroke-linejoin:round;stroke-dasharray:none;stroke-opacity:1"
         d="m 302.3918,416.01597 5.11652,16.80104"
         id="path71" />
      <path
         style="fill:#6c3a27;fill-opacity:1;stroke:#653625;stroke-width:2;stroke-linecap:round;stroke-linejoin:round;stroke-dasharray:none;stroke-opacity:1"
         d="m 306.60598,416.39735 4.15305,12.70062"
         id="path72" />
      <path
         style="fill:#a36245;fill-opacity:1;stroke:none;stroke-width:4;stroke-linecap:round;stroke-linejoin:round;stroke-dasharray:none;stroke-opacity:1"
         d="m 282.93472,464.29822 c 13.72062,-7.03069 27.44124,-14.06138 41.16186,-21.09207 -1.00659,-1.42566 -1.89481,-2.97429 -2.97329,-4.32527 -1.05432,-0.65025 -2.10864,-1.30049 -3.16296,-1.95074 -1.8445,-3.89923 -2.31637,-8.2362 -2.94647,-12.45165 0.81535,-0.70585 1.6307,-1.41169 2.44605,-2.11754 -0.88659,-3.15046 -1.77318,-6.30091 -2.65977,-9.45137 -1.4547,3.42524 -2.72971,6.94304 -4.29754,10.31001 -1.83943,2.84787 -3.57457,5.79233 -5.47917,8.57985 -3.03444,2.21367 -6.00472,4.56009 -9.07906,6.69121 -2.30572,0.55658 -4.58623,1.34032 -6.90793,1.75293 -3.51283,-0.1388 -7.02566,-0.27761 -10.53849,-0.41641 -2.02405,2.24977 -4.04809,4.49955 -6.07214,6.74932 3.50297,5.90724 7.00594,11.81449 10.50891,17.72173 z"
         id="path37" />
      <path
         style="fill:none;fill-opacity:1;stroke:#653625;stroke-width:2;stroke-linecap:round;stroke-linejoin:round;stroke-dasharray:none;stroke-opacity:1"
         d="m 313.67092,417.14508 -4.43773,9.28763 -6.80672,7.31864 -6.29332,4.58722 -5.96938,3.11893 -9.5136,-0.46973"
         id="path73"
         sodipodi:nodetypes="cccccc" />
    </g>
  </g>
  <g
     inkscape:groupmode="layer"
     id="layer5"
     inkscape:label="Backhair">
    <g
       id="g7">
      <path
         style="fill:#161616;fill-opacity:1;stroke:#0d0d0d;stroke-width:4;stroke-linecap:round;stroke-linejoin:round;stroke-dasharray:none;stroke-opacity:1"
         d="m 318.4407,404.32377 41.75141,-115.41624 44.20466,-54.05994 13.17568,9.64626 10.05101,35.19686 0.5882,67.57905 -73.25185,49.51604 z"
         id="path6" />
      <path
         style="fill:#161616;fill-opacity:1;stroke:#0d0d0d;stroke-width:4;stroke-linecap:round;stroke-linejoin:round;stroke-dasharray:none;stroke-opacity:1"
         d="m 273.07761,417.48143 42.88486,-7.40779 c 36.91117,-130.27076 61.61733,-146.378 87.69852,-175.34708 L 342.1606,218.53932 256.67136,371.33837 Z"
         id="path5"
         sodipodi:nodetypes="cccccc" />
      <path
         style="fill:#161616;fill-opacity:1;stroke:#0d0d0d;stroke-width:4;stroke-linecap:round;stroke-linejoin:round;stroke-dasharray:none;stroke-opacity:1"
         d="m 266.8052,380.19467 c 85.15822,-96.43754 72.40178,-114.5897 89.87128,-156.9083 l -68.74679,-14.4544 -97.61143,130.86001 z"
         id="path4"
         sodipodi:nodetypes="ccccc" />
      <path
         style="fill:#161616;fill-opacity:1;stroke:#0d0d0d;stroke-width:4;stroke-linecap:round;stroke-linejoin:round;stroke-dasharray:none;stroke-opacity:1"
         d="m 122.36719,166.73563 c 1.2543,26.86368 1.656,53.93183 -6.00525,82.93363 l -1.7103,56.18819 66.1802,-1.58491 c 70.40419,-38.65125 32.40896,-88.49801 33.29085,-134.32953 z"
         id="path2"
         sodipodi:nodetypes="cccccc" />
      <path
         style="fill:#161616;fill-opacity:1;stroke:#0d0d0d;stroke-width:4;stroke-linecap:round;stroke-linejoin:round;stroke-dasharray:none;stroke-opacity:1"
         d="m 241.50667,355.97592 c 2.98102,-71.01349 41.53997,-107.37205 73.7599,-149.90519 l -99.90148,-20.44976 -38.55217,134.61744 z"
         id="path3"
         sodipodi:nodetypes="ccccc" />
    </g>
    <g
       id="g1">
      <path
         style="display:inline;fill:#161616;fill-opacity:1;stroke:#0d0d0d;stroke-width:4;stroke-linecap:round;stroke-linejoin:round;stroke-dasharray:none;stroke-opacity:1"
         d="m 275.29736,422.99107 c -8.36035,10.42054 -10.33126,-6.10434 -15.78698,-7.21871 -5.90348,5.60172 5.47878,14.75284 0.74864,20.21732 -7.39469,7.55413 -14.78937,15.10827 -22.18406,22.66241 -14.32139,-5.89715 -28.97492,-11.20574 -41.89361,-19.92741 -8.56852,-3.1802 -16.01281,-15.87209 -20.2156,-18.51208 3.24902,12.46608 6.49803,24.93217 9.74705,37.39825 -6.26877,-5.63452 -14.68248,-9.70341 -17.31329,-18.33474 -6.13183,-12.31236 -10.35435,-25.87191 -9.38165,-39.75988 -0.0428,-11.73376 -0.76961,8.28841 -1.08578,12.16218 -1.93602,5.98824 -9.11626,10.78996 -15.90761,10.81435 -4.33002,0.62285 -8.66005,1.24569 -12.99008,1.86854 -7.50927,-4.66329 -14.2614,-10.34945 -18.24544,-18.43631 -3.21138,-4.71366 -9.61054,-13.09838 -1.4188,-5.43747 7.0358,5.53176 15.90563,14.46553 25.43255,9.07453 7.53212,-2.39462 9.4338,-15.76978 4.27434,-21.61993 -5.2589,-8.23426 -13.22854,-13.75837 -20.693,-19.75096 -9.37699,-8.61939 -17.82574,-18.23477 -26.707622,-27.31215 -7.19861,-10.67569 -7.045383,-24.82782 -5.366777,-37.05331 2.897829,-14.87125 13.407764,-26.40788 20.067949,-39.65754 5.14937,-5.07819 6.35785,-22.56721 15.11082,-14.4989 9.51134,4.67152 18.40745,10.43774 25.64895,18.24139 39.94736,37.27589 79.89472,74.55178 119.84208,111.82767 2.77264,14.41758 5.54528,28.83517 8.31792,43.25275 z"
         id="path27" />
      <path
         style="display:inline;fill:#161616;fill-opacity:1;stroke:#0d0d0d;stroke-width:4;stroke-linecap:round;stroke-linejoin:round;stroke-dasharray:none;stroke-opacity:1"
         d="m 122.36719,166.73563 c -12.96092,-10.13951 -40.132672,-32.72363 -5.26737,-26.94204 22.9161,5.39686 42.70293,-27.2807 9.93504,-27.63637 -12.16916,-10.46071 -17.46827,-24.99113 1.37488,-9.61186 37.89956,17.15758 30.7247,-48.422596 67.67304,-40.976591 20.25775,2.128036 14.91074,4.62018 -1.36537,-4.23384 -5.37255,-11.083215 -22.21782,-44.304526 -5.34664,-15.77815 26.5042,30.795757 54.90241,-25.747186 79.74582,-8.764682 11.57263,39.921697 55.93504,-16.88784 85.41512,5.54996 37.65813,3.320627 43.53598,46.181122 75.19799,57.635244 17.45992,10.862689 45.49508,9.553679 55.45017,-3.501082 -3.56577,19.470421 -46.99626,36.876211 -10.04858,42.354941 31.00206,21.30395 15.05705,57.05318 0.0868,81.04105 13.05058,34.18042 37.44768,66.45132 37.25063,104.12356 -12.85867,23.67743 -33.11415,43.15711 -45.61376,66.27201 -2.59054,25.27413 29.89935,23.90918 38.51293,8.51533 -10.0574,27.77454 -57.89594,45.14558 -64.26913,5.85387 6.12019,22.68072 -47.15413,51.02188 -25.62429,15.70383 9.16175,-26.7265 -19.9719,21.55503 -34.10778,21.81903 -15.28171,8.573 -30.97035,16.26188 -16.72271,-6.56929 7.86628,-11.19301 6.84884,-52.17678 0.78952,-17.89621 -3.16043,6.40344 -32.77089,41.31409 -18.15235,14.77171 7.33693,-37.10218 -25.63476,58.44953 -26.15074,8.79658 -8.6703,-20.35069 -9.24454,-35.40359 16.89349,-35.31918 36.57384,-6.6965 60.48484,-42.45956 90.29968,-54.66281 -9.58018,-14.81618 -6.66101,-34.62809 -0.91503,-66.39594 -10.7437,-34.42858 -2.3763,-36.48888 -29.9478,-48.70955 C 305.7629,210.36197 214.06504,188.5488 122.36719,166.73563 Z"
         id="path39"
         sodipodi:nodetypes="cccccccccccccccccccccccccccc" />
      <path
         style="display:inline;opacity:1;fill:#0f0f0f;fill-opacity:1;stroke:#0f0f0f;stroke-width:4;stroke-linecap:round;stroke-linejoin:round;stroke-dasharray:none;stroke-opacity:1"
         d="m 142.90247,350.94198 -17.67129,-4.91899 -18.94308,-16.51095 c -3.15861,-15.17337 -7.210762,-31.80202 -10.063472,-47.57837 4.177312,-5.39009 8.862842,-17.41345 16.565462,-28.09138 6.93208,14.7609 14.54581,27.99932 28.30943,27.50184 0.32604,17.74708 -2.7407,25.78683 -12.13467,44.97023 l 26.87051,-4.87961 4.84215,14.10476 -9.04409,-0.44858 c -1.63793,1.20239 -3.21252,2.18248 -5.1817,4.54726 l 0.0749,11.68321 z"
         id="path82"
         sodipodi:nodetypes="ccccccccccccc" />
      <path
         style="fill:#161616;fill-opacity:1;stroke:#161616;stroke-width:4;stroke-linecap:round;stroke-linejoin:round;stroke-dasharray:none;stroke-opacity:1"
         d="m 122.02839,243.70936 -3.71343,7.35096 57.81263,54.34321 4.61935,-13.59325 z"
         id="path7"
         sodipodi:nodetypes="ccccc" />
    </g>
  </g>
  <g
     inkscape:groupmode="layer"
     id="layer3"
     inkscape:label="Face"
     style="display:inline"
     sodipodi:insensitive="true">
    <g
       id="g85">
      <path
         style="fill:#c2a07b;fill-opacity:1;stroke:none;stroke-width:4;stroke-linecap:round;stroke-linejoin:round;stroke-dasharray:none;stroke-opacity:1"
         d="m 283.40573,417.08314 c -16.5506,1.65006 -32.57948,-3.76972 -48.84575,-5.97269 -19.0327,-6.77377 -36.69197,-17.04148 -54.45691,-26.56813 -10.24341,-7.79804 -20.36451,-15.72609 -28.31587,-25.96074 -3.2332,-4.64318 -2.03406,-11.35288 -3.52122,-16.81012 2.19811,-6.77699 8.08916,-6.44133 14.10696,-5.86157 4.84395,-0.49085 -2.15462,-9.71069 -2.21057,-13.81321 -3.47998,-14.1309 -11.31457,-26.64214 -16.20307,-40.16698 -1.45725,-11.20561 -6.18856,-22.36607 -2.83924,-33.63795 -1.0485,-143.46343 68.78776,-123.53542 155.40727,-125.77575 86.61951,-2.24032 142.20418,-6.25286 157.42573,114.79536 9.58127,14.53498 -8.00322,63.22323 -12.56696,68.09737 11.40859,4.79659 23.74196,6.34652 36.04248,4.68182 -3.12719,5.69586 -4.23306,13.1165 -8.70908,17.6614 -9.96649,6.25285 -20.05416,12.72593 -30.53584,17.87138 -6.67548,1.23383 -14.16952,0.92819 -20.33483,3.1215 -8.65893,9.21052 -16.02509,19.92039 -25.52495,28.1556 -11.25755,7.113 -22.02142,15.20337 -35.00355,18.90212 -16.61991,6.07815 -32.95329,13.32976 -49.80509,18.53429 -8.0365,0.91543 -16.07301,1.83087 -24.10951,2.7463 z"
         id="path45"
         sodipodi:nodetypes="cccccccccscccccccccc" />
      <path
         style="fill:#fff8f2;fill-opacity:1;stroke:none;stroke-width:4;stroke-linecap:round;stroke-linejoin:round;stroke-dasharray:none;stroke-opacity:1"
         d="m 302.22403,268.49788 -3.18347,9.4499 5.32639,16.67606 5.74955,10.33152 17.09309,9.51442 11.55207,2.91111 18.65528,-1.24024 19.53487,-11.89982 18.47495,-28.73924 -3.85657,-10.52781 -5.66668,-10.85757 -7.813,-6.59924 -4.90664,-1.4474 -9.42783,-2.71788 -21.45194,1.91572 -40.88697,23.30043 z"
         id="path51" />
      <path
         style="fill:#fbf2ee;fill-opacity:1;stroke:none;stroke-width:4;stroke-linecap:round;stroke-linejoin:round;stroke-dasharray:none;stroke-opacity:1"
         d="m 163.92389,301.07161 c 5.53514,4.60077 11.07028,9.20154 16.60542,13.80231 12.95275,3.50383 26.7493,2.24533 39.11995,-2.80765 7.28006,-2.61753 12.96643,-9.91893 16.53474,-16.77429 4.79791,-5.63318 11.67335,-13.4191 3.97603,-20.06315 -4.55953,-7.17823 -7.11789,-16.18561 -15.16177,-20.37956 -7.33402,-4.10809 -13.02425,-11.44259 -21.64488,-12.85297 -8.66952,-1.29065 -17.69797,-3.71705 -26.0205,0.55061 -9.28531,1.75907 -15.51059,9.03069 -21.91957,15.29745 -2.86736,6.079 -9.47445,14.20497 -3.89414,20.96621 4.1349,7.42035 8.26981,14.84069 12.40472,22.26104 z"
         id="path57" />
      <path
         style="fill:none;fill-opacity:1;stroke:#411006;stroke-width:2;stroke-linecap:round;stroke-linejoin:round;stroke-dasharray:none;stroke-opacity:1"
         d="m 293.58351,364.91611 c -14.57757,1.42738 -29.17202,3.0679 -43.9261,6.72387"
         id="path46"
         sodipodi:nodetypes="cc" />
      <path
         style="fill:none;fill-opacity:1;stroke:#ab7657;stroke-width:2;stroke-linecap:round;stroke-linejoin:round;stroke-dasharray:none;stroke-opacity:1"
         d="m 250.70297,321.38624 5.32579,-18.30743"
         id="path47" />
      <path
         style="fill:#b27a5b;fill-opacity:1;stroke:#ab7657;stroke-width:2;stroke-linecap:round;stroke-linejoin:round;stroke-dasharray:none;stroke-opacity:1"
         d="m 256.21054,320.97344 7.8057,-27.56908"
         id="path48" />
      <path
         style="fill:#b27a5b;fill-opacity:1;stroke:#ab7657;stroke-width:2;stroke-linecap:round;stroke-linejoin:round;stroke-dasharray:none;stroke-opacity:1"
         d="m 261.1012,317.2244 6.16675,-17.10457"
         id="path49" />
      <path
         style="fill:#b27a5b;fill-opacity:1;stroke:#ab7657;stroke-width:2;stroke-linecap:round;stroke-linejoin:round;stroke-dasharray:none;stroke-opacity:1"
         d="m 265.39751,314.87249 4.71848,-10.60091"
         id="path50" />
      <path
         style="fill:#111111;fill-opacity:1;stroke:none;stroke-width:4;stroke-linecap:round;stroke-linejoin:round;stroke-dasharray:none;stroke-opacity:1"
         d="m 354.26947,289.48117 c -9.25116,18.5022 -19.54428,20.02215 -22.76062,20.00711 -20.49781,-1.26224 -26.09307,-33.29913 -21.45214,-45.71869 4.6997,-4.74349 8.42335,-11.26439 15.20585,-13.24818 4.96118,-1.79561 9.86893,-5.18076 15.39007,-4.10065 3.66113,-0.81065 6.40083,2.59993 7.56875,5.64416 2.55103,6.45512 5.7211,12.65455 8.51772,19.00854 l -10.38043,-2.09028 c -14.24596,9.98731 -8.39964,22.01319 4.22415,20.58231 1.22393,-0.1155 2.4595,-0.21198 3.68665,-0.0843 z"
         id="path52"
         sodipodi:nodetypes="sccccccccss" />
      <path
         style="fill:#ffe0cb;fill-opacity:1;stroke:none;stroke-width:4;stroke-linecap:round;stroke-linejoin:round;stroke-dasharray:none;stroke-opacity:1"
         d="m 358.19753,272.27843 35.03233,-6.0875 -7.34583,-11.27018 -17.13146,-10.10261 -26.95553,0.24109 z"
         id="path53" />
      <path
         style="fill:#0d0d0d;fill-opacity:1;stroke:none;stroke-width:4;stroke-linecap:round;stroke-linejoin:round;stroke-dasharray:none;stroke-opacity:1"
         d="m 301.40683,270.03928 15.24642,-14.34865 23.97557,-12.12736 22.21776,-2.22918 14.77154,5.45476 13.18625,12.74749 4.81834,16.07902 -16.08785,26.42821 20.98498,-23.58841 6.76497,2.91246 -0.64932,-6.0253 -10.03131,-25.99691 -10.16512,-12.07098 -17.64189,-6.40635 -9.39421,-1.2905 -17.95909,2.89413 -22.86165,10.16986 -10.72818,8.92895 -7.15967,11.21868 c 0.22128,2.12856 -2.064,9.23911 0.71246,7.25008 z"
         id="path54"
         sodipodi:nodetypes="cccccccccccccccccccc" />
      <path
         style="fill:#0d0d0d;fill-opacity:1;stroke:none;stroke-width:4;stroke-linecap:round;stroke-linejoin:round;stroke-dasharray:none;stroke-opacity:1"
         d="m 308.60423,246.28657 6.23484,-6.53471 7.37253,-3.00994 -2.93047,-1.59377 -4.94638,2.57218 z"
         id="path55" />
      <path
         style="fill:#ffe0cb;fill-opacity:1;stroke:none;stroke-width:4;stroke-linecap:round;stroke-linejoin:round;stroke-dasharray:none;stroke-opacity:1"
         d="m 188.13205,273.86527 -37.98796,-8.20409 12.04774,-18.129 20.418,-6.02363 22.96154,3.40516 z"
         id="path59" />
      <path
         style="fill:#0d0d0d;fill-opacity:1;stroke:none;stroke-width:4;stroke-linecap:round;stroke-linejoin:round;stroke-dasharray:none;stroke-opacity:1"
         d="m 164.21969,300.92932 -15.21133,-27.98191 3.63481,-10.16749 10.26699,-12.4184 19.04176,-7.20646 18.64136,1.86172 16.65908,6.58668 14.3331,8.17943 9.11743,10.13047 -6.21311,-16.85808 -14.88666,-12.77465 -19.60517,-7.59667 -14.27257,-2.78322 -20.13224,9.41439 -13.83388,12.72252 -7.208,10.39991 0.59891,15.85346 z"
         id="path56" />
      <path
         style="fill:#0d0d0d;fill-opacity:1;stroke:#0d0d0d;stroke-width:4;stroke-linecap:round;stroke-linejoin:round;stroke-dasharray:none;stroke-opacity:1"
         d="m 188.16327,276.77268 c 0.98467,-13.47619 4.01009,-31.95263 21.39357,-28.09976 7.86841,2.0594 15.72996,6.24162 20.16846,13.28891 3.99232,7.62365 3.90536,11.65216 -4.9515,12.50692 -5.69096,0.41077 -10.59601,6.73841 -8.81289,12.33338 1.34752,3.9418 6.04307,4.05344 9.09904,5.9802 2.50932,1.17944 3.37926,4.6889 1.08069,6.54307 -18.14621,20.35352 -41.59513,-1.16941 -37.97737,-22.55272 z"
         id="path58"
         sodipodi:nodetypes="cccccccc" />
      <path
         style="fill:#a36147;fill-opacity:1;stroke:#a36147;stroke-width:4;stroke-linecap:round;stroke-linejoin:round;stroke-dasharray:none;stroke-opacity:1"
         d="m 457.77824,247.23985 c -14.26921,14.37511 -18.45501,54.10716 -17.62288,56.21513 1.97877,4.32756 8.17604,3.98093 12.02422,6.07868 5.65859,1.77362 11.68573,1.10816 17.52701,1.58234 4.98162,1.14517 7.06078,-2.16284 7.68877,-6.49198 13.03034,-42.9997 -1.00817,-53.29202 -19.61712,-57.38417 z"
         id="path74"
         sodipodi:nodetypes="cccccc" />
    </g>
  </g>
  <g
     inkscape:groupmode="layer"
     id="layer4"
     inkscape:label="Fronthair"
     style="display:inline">
    <g
       id="g86">
      <path
         style="fill:#161616;fill-opacity:1;stroke:#0d0d0d;stroke-width:4;stroke-linecap:round;stroke-linejoin:round;stroke-dasharray:none;stroke-opacity:1"
         d="m 268.1542,108.36184 -21.20517,6.11104 -13.28638,20.25231 1.79432,18.87775 18.2995,13.98566 -2.84324,-15.10662 11.52664,-27.27684 13.2297,-8.33664 51.52507,121.00839 74.253,36.74954 19.57223,-9.51714 -15.50781,33.52191 7.13718,-3.11216 14.75931,-14.63434 1.69124,-30.20327 -10.55905,-24.48973 10.54683,23.10549 3.54821,-0.0326 -4.23014,-24.74104 -9.89207,-28.78508 -20.66168,-35.94807 -34.25547,-36.37461 -27.59509,-22.27685 -21.73892,-4.4244 -12.87008,-20.39373 -23.34303,-8.51527 -8.28642,1.443108 -6.62813,9.014262 -7.756,14.13865 -5.38868,10.90813 z"
         id="path25"
         sodipodi:nodetypes="ccccccccccccccccccccccccccccccc" />
      <path
         style="fill:#161616;fill-opacity:1;stroke:#0d0d0d;stroke-width:4;stroke-linecap:round;stroke-linejoin:round;stroke-dasharray:none;stroke-opacity:1"
         d="m 236.49074,155.59558 c -4.23115,11.19317 -8.16004,22.61584 -15.95368,31.94321 -8.79985,13.00146 -17.38329,26.15621 -25.43032,39.63918 -9.92637,10.30587 -44.59863,23.88622 -46.97995,20.86677 0,0 -0.87604,-15.97347 -1.06395,-25.17316 0.89946,-6.57427 -2.23222,11.46542 -2.95387,14.93487 -3.62353,11.90079 -1.98042,32.82399 -6.65075,39.56797 -9.49036,-5.37858 -13.5657,-15.28534 -18.05491,-24.62386 -4.29654,-7.05143 -1.6698,-15.6037 -2.34918,-23.43465 0.0681,-5.75312 0.92223,-14.13582 -3.86168,-3.65635 -5.62245,8.62476 -11.24491,17.24952 -16.867362,25.87428 3.265658,-49.86395 18.867022,-89.27307 62.815202,-123.76476 14.67482,-8.1092 29.34963,-16.21841 44.02444,-24.32761 l 37.34317,3.82398 c -1.33905,16.11004 -2.67812,32.22011 -4.01716,48.33013 z"
         id="path26"
         sodipodi:nodetypes="ccccccccccccccc" />
      <path
         style="fill:#161616;fill-opacity:1;stroke:#0d0d0d;stroke-width:4;stroke-linecap:round;stroke-linejoin:round;stroke-dasharray:none;stroke-opacity:1"
         d="m 411.57744,341.50181 21.37894,-27.84097 18.96636,-30.88656 8.52685,-65.44904 -6.59245,-40.38062 -16.54157,-37.71673 -39.66065,-46.34412 -37.89469,-5.94447 29.79439,31.65136 36.38819,53.25443 10.64193,33.45399 -2.74403,46.30879 -8.83815,42.06497 -3.40131,22.18301 z"
         id="path60" />
      <path
         style="fill:#161616;fill-opacity:1;stroke:#0d0d0d;stroke-width:4;stroke-linecap:round;stroke-linejoin:round;stroke-dasharray:none;stroke-opacity:1"
         d="m 276.94768,120.8693 c -4.17712,21.36627 0.69558,43.74484 9.48643,63.32012 10.09745,15.49852 17.32704,33.15394 31.62103,45.4688 13.30844,15.66124 32.85542,23.53772 49.45455,35.06339 9.62671,8.39837 20.91923,10.83647 33.40425,9.32782 9.482,2.94938 26.74401,-11.3941 16.41643,4.97466 -1.95876,7.2555 -15.81204,27.22728 -0.85416,16.39746 14.14795,-4.91938 12.16285,-23.91663 15.77095,-36.29926 5.22442,-18.38327 -2.55223,-36.03207 -9.72674,-52.63889 -5.79774,-16.72539 -14.57625,-32.28548 -24.59045,-46.77844 -16.87808,-15.71928 -32.6219,-32.84444 -49.93502,-47.96369 -8.28396,-5.99826 -16.8069,-12.250793 -27.49482,-10.67835 -9.85052,-1.263772 -7.17006,-18.978033 -17.84838,-22.007106 -6.58384,-4.304028 -13.16768,-8.608057 -19.75152,-12.912085 -12.32301,0.667308 -24.92936,8.668092 -28.33269,20.875883 -2.24603,6.383136 -4.49205,12.766272 -6.73807,19.149408 9.70607,4.90009 19.41214,9.80019 29.11821,14.70028 z"
         id="path61" />
      <path
         style="fill:#161616;fill-opacity:1;stroke:#0d0d0d;stroke-width:4;stroke-linecap:round;stroke-linejoin:round;stroke-dasharray:none;stroke-opacity:1"
         d="m 257.44244,170.28879 c -7.08368,0.79244 -10.45933,-4.25692 -15.11623,-7.28774 l -6.19171,-13.35946 0.32874,-16.81326 24.09986,-21.87204 13.98841,9.33715 -6.36424,4.41014 -13.42669,19.57426 -1.74015,15.59679 z"
         id="path62"
         sodipodi:nodetypes="cccccccccc" />
      <path
         style="fill:none;fill-opacity:1;stroke:#090909;stroke-width:4;stroke-linecap:round;stroke-linejoin:round;stroke-dasharray:none;stroke-opacity:1"
         d="M 360.82032,87.93193 342.51505,72.67066 329.91643,65.096695 309.77555,67.067751 295.48828,74.38525"
         id="path75" />
      <path
         style="fill:#151515;fill-opacity:1;stroke:#0d0d0d;stroke-width:4;stroke-linecap:round;stroke-linejoin:round;stroke-dasharray:none;stroke-opacity:1"
         d="m 275.41411,66.782949 -3.49727,-13.777172 9.21081,-21.277729 13.51228,-10.313181 28.51339,-10.842968 16.35751,1.397143 -15.85013,-5.7352807 -20.82537,-2.336496 -16.84518,2.577617 -19.36643,7.4604827 -11.70081,10.551586 -6.05791,15.331212 2.80855,13.92524 14.84829,17.836157 z"
         id="path77" />
      <path
         style="opacity:1;fill:#757575;fill-opacity:1;stroke:#757575;stroke-width:4;stroke-linecap:round;stroke-linejoin:round;stroke-dasharray:none;stroke-opacity:1"
         d="m 160.43489,189.55117 c 2.64673,-5.68959 15.68817,-13.37448 25.6951,-25.70294 -28.05962,21.19804 -48.05025,5.56023 -29.64156,-27.86712 -14.90675,10.59384 -34.36581,36.52437 -38.50541,45.81548 4.76223,-8.82673 32.75826,-11.4697 42.45187,7.75458 z"
         id="path78"
         sodipodi:nodetypes="ccccc" />
      <path
         style="opacity:1;fill:#757575;fill-opacity:1;stroke:#757575;stroke-width:4;stroke-linecap:round;stroke-linejoin:round;stroke-dasharray:none;stroke-opacity:1"
         d="m 347.78807,214.23686 c -11.42571,-13.23399 -19.44313,-27.22889 -25.55753,-38.30256 0.12164,-6.25084 1.19339,-16.06476 5.57268,-24.2999 27.66683,52.29718 64.87952,18.25435 45.28387,-10.07341 8.122,9.29474 24.71671,24.97382 31.88806,43.42247 -36.51757,-16.30274 -50.08928,-1.65766 -57.18708,29.2534 z"
         id="path79"
         sodipodi:nodetypes="cccccc" />
      <path
         style="opacity:1;fill:#757575;fill-opacity:1;stroke:#757575;stroke-width:4;stroke-linecap:round;stroke-linejoin:round;stroke-dasharray:none;stroke-opacity:1"
         d="m 434.51523,185.0373 c 1.2821,-10.46221 6.72262,-8.97083 14.10829,-9.06886 -0.89257,-8.8675 -4.29578,-16.24365 -7.93254,-23.48144 0.31772,6.22909 0.0688,13.74013 -14.1521,13.19271 5.54855,6.31493 7.17985,12.82828 7.97635,19.35759 z"
         id="path80"
         sodipodi:nodetypes="ccccc" />
      <path
         style="opacity:1;fill:#757575;fill-opacity:1;stroke:#757575;stroke-width:2;stroke-linecap:round;stroke-linejoin:round;stroke-dasharray:none;stroke-opacity:1"
         d="m 256.05099,31.749359 c 1.67853,-2.117781 3.28466,-2.309654 5.87444,-2.311959 6.91396,-0.11283 3.35147,5.495179 2.7785,8.970036 4.98955,-1.854888 10.30609,-3.293986 12.55911,-8.65239 0.83135,-2.548332 0.36428,-5.101851 0.36428,-5.101851 l -5.71184,2.586949 c -7.55452,1.347828 -6.79612,-5.556361 -4.73498,-10.39519 -6.29663,4.130047 -11.94139,9.444885 -11.12951,14.904405 z"
         id="path81"
         sodipodi:nodetypes="cccscccc" />
      <path
         style="opacity:1;fill:#161616;fill-opacity:1;stroke:#161616;stroke-width:2;stroke-linecap:round;stroke-linejoin:round;stroke-dasharray:none;stroke-opacity:1"
         d="m 237.30489,100.15103 -0.33448,13.94637 17.42492,-6.99523 z"
         id="path83"
         sodipodi:nodetypes="cccc" />
      <path
         style="display:inline;fill:#161616;fill-opacity:1;stroke:#0d0d0d;stroke-width:2;stroke-linecap:round;stroke-linejoin:round;stroke-opacity:1"
         d="m 434.63574,234.90763 -36.70577,-75.20267 -61.92864,-58.56602 -21.73892,-4.4244 -5.57526,-13.823975 -12.95009,-8.632733 14.03849,-7.190081 20.14088,-1.971056 30.90389,22.835235 28.7343,30.65873 36.38819,53.25443 10.64193,33.45399 z"
         id="path1" />
    </g>
  </g>
</svg>
